/* XPM */
static const char *const email_xpm[] = {
/* columns rows colors chars-per-pixel */
"32 32 3 1",
"  c black",
". c gray100",
"X c None",
/* pixels */
"XXXXXXXXXXXXXXXXXXXXXXXXXXXXXXXX",
"XXXXXXXXXXXXXXXXXXXXXXXXXXXXXXXX",
"XXXXXXXXXXXXXXXXXXXXXXXXXXXXXXXX",
"XXXXXXXXXXXXXXXXXXXXXXXXXXXXXXXX",
"XXXXXXXXXXXXXXXXXXXXXXXXXXXXXXXX",
"XXXXXXXXXXXXXXXXXXXXXXXXXXXXXXXX",
"XXXX                        XXXX",
"XXX                          XXX",
"XX.                          .XX",
"XX..                        ..XX",
"XX ..                      .. XX",
"XX  ..                    ..  XX",
"XX   ..                  ..   XX",
"XX    ..                ..    XX",
"XX     ..              ..     XX",
"XX      ..            ..      XX",
"XX       ..          ..       XX",
"XX        ..        ..        XX",
"XX       ....      ....       XX",
"XX      ..  ..    ..  ..      XX",
"XX     ..    ..  ..    ..     XX",
"XX    ..      ....      ..    XX",
"XX   ..        ..        ..   XX",
"XX   .                    .   XX",
"XXX                          XXX",
"XXXX                        XXXX",
"XXXXXXXXXXXXXXXXXXXXXXXXXXXXXXXX",
"XXXXXXXXXXXXXXXXXXXXXXXXXXXXXXXX",
"XXXXXXXXXXXXXXXXXXXXXXXXXXXXXXXX",
"XXXXXXXXXXXXXXXXXXXXXXXXXXXXXXXX",
"XXXXXXXXXXXXXXXXXXXXXXXXXXXXXXXX",
"XXXXXXXXXXXXXXXXXXXXXXXXXXXXXXXX"
};
